HIERARCHY
ROOT Hips
{
  OFFSET 5.80788e-005 67.184 3.4734
  CHANNELS 6 Xposition Yposition Zposition Zrotation Xrotation Yrotation
  JOINT Chest
  {
    OFFSET 0 8.7983 -4.7612
    CHANNELS 6 Xposition Yposition Zposition Zrotation Xrotation Yrotation
    JOINT Chest2
    {
      OFFSET 0 8.0291 0.4195
      CHANNELS 6 Xposition Yposition Zposition Zrotation Xrotation Yrotation
      JOINT Chest3
      {
        OFFSET 0 9.9351 -2.2114
        CHANNELS 6 Xposition Yposition Zposition Zrotation Xrotation Yrotation
        JOINT Neck
        {
          OFFSET 0 22.3885 -0.4656
          CHANNELS 6 Xposition Yposition Zposition Zrotation Xrotation Yrotation
          JOINT Head
          {
            OFFSET -0.0001 12.643 3.4389
            CHANNELS 6 Xposition Yposition Zposition Zrotation Xrotation Yrotation
            End Site
            {
              OFFSET 0.0001 17.6655 0.5274
            }
          }
        }
        JOINT LeftCollar
        {
          OFFSET 2.2603 21.606 7.4023
          CHANNELS 6 Xposition Yposition Zposition Zrotation Xrotation Yrotation
          JOINT LeftShoulder
          {
            OFFSET 13.5163 -1.1332 -5.0146
            CHANNELS 6 Xposition Yposition Zposition Zrotation Xrotation Yrotation
            JOINT LeftElbow
            {
              OFFSET -0.0995 -28.05 -0.2431
              CHANNELS 6 Xposition Yposition Zposition Zrotation Xrotation Yrotation
              JOINT LeftWrist
              {
                OFFSET 0.0679 -23.3996 -0.1402
                CHANNELS 6 Xposition Yposition Zposition Zrotation Xrotation Yrotation
                JOINT LeftFinger1
                {
                  OFFSET 0.7932 -9.069 2.5189
                  CHANNELS 6 Xposition Yposition Zposition Zrotation Xrotation Yrotation
                  JOINT LeftFinger11
                  {
                    OFFSET -0.8272 -3.3923 0.5977
                    CHANNELS 6 Xposition Yposition Zposition Zrotation Xrotation Yrotation
                    JOINT LeftFinger12
                    {
                      OFFSET -0.5649 -2.3158 0.4082
                      CHANNELS 6 Xposition Yposition Zposition Zrotation Xrotation Yrotation
                      End Site
                      {
                        OFFSET -0.4919 -1.6479 0.2673
                      }
                    }
                  }
                }
                JOINT LeftFinger2
                {
                  OFFSET 0.9159 -9.2044 0.2193
                  CHANNELS 6 Xposition Yposition Zposition Zrotation Xrotation Yrotation
                  JOINT LeftFinger21
                  {
                    OFFSET 0.0117 -4.1944 -0.0248
                    CHANNELS 6 Xposition Yposition Zposition Zrotation Xrotation Yrotation
                    JOINT LeftFinger22
                    {
                      OFFSET 0.0071 -2.3249 -0.0142
                      CHANNELS 6 Xposition Yposition Zposition Zrotation Xrotation Yrotation
                      End Site
                      {
                        OFFSET -0.1475 -2.0882 0.0028
                      }
                    }
                  }
                }
                JOINT LeftFinger3
                {
                  OFFSET 0.6113 -8.7231 -2.0637
                  CHANNELS 6 Xposition Yposition Zposition Zrotation Xrotation Yrotation
                  JOINT LeftFinger31
                  {
                    OFFSET -0.1927 -3.8059 -0.2383
                    CHANNELS 6 Xposition Yposition Zposition Zrotation Xrotation Yrotation
                    JOINT LeftFinger32
                    {
                      OFFSET -0.1091 -2.1688 -0.1362
                      CHANNELS 6 Xposition Yposition Zposition Zrotation Xrotation Yrotation
                      End Site
                      {
                        OFFSET -0.2358 -1.9176 -0.0906
                      }
                    }
                  }
                }
                JOINT LeftFinger4
                {
                  OFFSET -0.6151 -8.0947 -3.5641
                  CHANNELS 6 Xposition Yposition Zposition Zrotation Xrotation Yrotation
                  JOINT LeftFinger41
                  {
                    OFFSET -0.4882 -2.341 -0.6462
                    CHANNELS 6 Xposition Yposition Zposition Zrotation Xrotation Yrotation
                    JOINT LeftFinger42
                    {
                      OFFSET -0.3575 -1.7167 -0.4742
                      CHANNELS 6 Xposition Yposition Zposition Zrotation Xrotation Yrotation
                      End Site
                      {
                        OFFSET -0.4187 -1.5237 -0.3496
                      }
                    }
                  }
                }
                JOINT LeftFinger0
                {
                  OFFSET -1.42 -1.8761 1.4223
                  CHANNELS 6 Xposition Yposition Zposition Zrotation Xrotation Yrotation
                  JOINT LeftFinger01
                  {
                    OFFSET -1.1471 -3.4929 2.6334
                    CHANNELS 6 Xposition Yposition Zposition Zrotation Xrotation Yrotation
                    JOINT LeftFinger02
                    {
                      OFFSET -0.823 -2.3 1.6571
                      CHANNELS 6 Xposition Yposition Zposition Zrotation Xrotation Yrotation
                      End Site
                      {
                        OFFSET -0.5822 -1.6914 1.1582
                      }
                    }
                  }
                }
              }
            }
          }
        }
        JOINT RightCollar
        {
          OFFSET -2.2603 21.606 7.4023
          CHANNELS 6 Xposition Yposition Zposition Zrotation Xrotation Yrotation
          JOINT RightShoulder
          {
            OFFSET -13.5187 -1.1334 -5.0155
            CHANNELS 6 Xposition Yposition Zposition Zrotation Xrotation Yrotation
            JOINT RightElbow
            {
              OFFSET 0.0994 -28.0499 -0.2431
              CHANNELS 6 Xposition Yposition Zposition Zrotation Xrotation Yrotation
              JOINT RightWrist
              {
                OFFSET -0.0679 -23.3996 -0.1402
                CHANNELS 6 Xposition Yposition Zposition Zrotation Xrotation Yrotation
                JOINT RightFinger1
                {
                  OFFSET -0.7932 -9.0691 2.5189
                  CHANNELS 6 Xposition Yposition Zposition Zrotation Xrotation Yrotation
                  JOINT RightFinger11
                  {
                    OFFSET 0.8272 -3.3923 0.5977
                    CHANNELS 6 Xposition Yposition Zposition Zrotation Xrotation Yrotation
                    JOINT RightFinger12
                    {
                      OFFSET 0.565 -2.3158 0.4082
                      CHANNELS 6 Xposition Yposition Zposition Zrotation Xrotation Yrotation
                      End Site
                      {
                        OFFSET 0.4919 -1.6479 0.2673
                      }
                    }
                  }
                }
                JOINT RightFinger2
                {
                  OFFSET -0.916 -9.2044 0.2193
                  CHANNELS 6 Xposition Yposition Zposition Zrotation Xrotation Yrotation
                  JOINT RightFinger21
                  {
                    OFFSET -0.0117 -4.1944 -0.0248
                    CHANNELS 6 Xposition Yposition Zposition Zrotation Xrotation Yrotation
                    JOINT RightFinger22
                    {
                      OFFSET -0.0071 -2.3249 -0.0142
                      CHANNELS 6 Xposition Yposition Zposition Zrotation Xrotation Yrotation
                      End Site
                      {
                        OFFSET 0.1475 -2.0882 0.0028
                      }
                    }
                  }
                }
                JOINT RightFinger3
                {
                  OFFSET -0.6113 -8.7231 -2.0637
                  CHANNELS 6 Xposition Yposition Zposition Zrotation Xrotation Yrotation
                  JOINT RightFinger31
                  {
                    OFFSET 0.1927 -3.8059 -0.2383
                    CHANNELS 6 Xposition Yposition Zposition Zrotation Xrotation Yrotation
                    JOINT RightFinger32
                    {
                      OFFSET 0.1091 -2.1688 -0.1362
                      CHANNELS 6 Xposition Yposition Zposition Zrotation Xrotation Yrotation
                      End Site
                      {
                        OFFSET 0.2358 -1.9176 -0.0906
                      }
                    }
                  }
                }
                JOINT RightFinger4
                {
                  OFFSET 0.6151 -8.0947 -3.564
                  CHANNELS 6 Xposition Yposition Zposition Zrotation Xrotation Yrotation
                  JOINT RightFinger41
                  {
                    OFFSET 0.4882 -2.341 -0.6462
                    CHANNELS 6 Xposition Yposition Zposition Zrotation Xrotation Yrotation
                    JOINT RightFinger42
                    {
                      OFFSET 0.3574 -1.7166 -0.4742
                      CHANNELS 6 Xposition Yposition Zposition Zrotation Xrotation Yrotation
                      End Site
                      {
                        OFFSET 0.4187 -1.5237 -0.3496
                      }
                    }
                  }
                }
                JOINT RightFinger0
                {
                  OFFSET 1.4199 -1.8761 1.4221
                  CHANNELS 6 Xposition Yposition Zposition Zrotation Xrotation Yrotation
                  JOINT RightFinger01
                  {
                    OFFSET 1.1472 -3.4929 2.6336
                    CHANNELS 6 Xposition Yposition Zposition Zrotation Xrotation Yrotation
                    JOINT RightFinger02
                    {
                      OFFSET 0.8229 -2.3 1.6571
                      CHANNELS 6 Xposition Yposition Zposition Zrotation Xrotation Yrotation
                      End Site
                      {
                        OFFSET 0.5822 -1.6914 1.1582
                      }
                    }
                  }
                }
              }
            }
          }
        }
      }
    }
  }
  JOINT RightHip
  {
    OFFSET -9.412 3.9771 -0.7758
    CHANNELS 6 Xposition Yposition Zposition Zrotation Xrotation Yrotation
    JOINT RightKnee
    {
      OFFSET -0.7531 -40.938 0
      CHANNELS 6 Xposition Yposition Zposition Zrotation Xrotation Yrotation
      JOINT RightAnkle
      {
        OFFSET 0 -40.1986 0
        CHANNELS 6 Xposition Yposition Zposition Zrotation Xrotation Yrotation
        JOINT RightToe
        {
          OFFSET 0 -4.4182 9.239
          CHANNELS 6 Xposition Yposition Zposition Zrotation Xrotation Yrotation
          End Site
          {
            OFFSET 0 0 6.1981
          }
        }
      }
    }
  }
  JOINT LeftHip
  {
    OFFSET 9.4119 3.9773 -0.7758
    CHANNELS 6 Xposition Yposition Zposition Zrotation Xrotation Yrotation
    JOINT LeftKnee
    {
      OFFSET 0.7532 -40.9383 0
      CHANNELS 6 Xposition Yposition Zposition Zrotation Xrotation Yrotation
      JOINT LeftAnkle
      {
        OFFSET 0 -40.1986 0
        CHANNELS 6 Xposition Yposition Zposition Zrotation Xrotation Yrotation
        JOINT LeftToe
        {
          OFFSET 0 -4.4182 9.239
          CHANNELS 6 Xposition Yposition Zposition Zrotation Xrotation Yrotation
          End Site
          {
            OFFSET 0 0 6.1981
          }
        }
      }
    }
  }
}
MOTION
Frames:	4
Frame Time:	0.0333333
5.80788e-005 67.184 3.4734 0 0 -0 0 8.7983 -4.7612 0 0 -0 0 8.0291 0.4195 0 0 -0 0 9.9351 -2.2114 0 0 -0 0 22.3885 -0.4656 0 0 -0 -0.0001 12.643 3.4389 0 0 -0 2.2603 21.606 7.4023 0 0 -12.5014 13.5163 -1.1332 -5.0146 88.1196 14.2451 10.6914 -0.0995 -28.05 -0.2431 -0.00160068 -0.00239207 0.000740045 0.0679 -23.3996 -0.1402 -8.4365e-005 7.00714e-005 -9.52055e-007 0.7932 -9.069 2.5189 9.93923e-017 -1.98785e-016 -1.59028e-015 -0.8272 -3.3923 0.5977 9.93923e-017 -5.96354e-016 -1.59028e-015 -0.5649 -2.3158 0.4082 -9.93923e-017 -5.96354e-016 -1.59028e-015 0.9159 -9.2044 0.2193 9.93923e-017 -1.98785e-016 -1.59028e-015 0.0117 -4.1944 -0.0248 -0.0128176 0.00232552 8.52707e-005 0.0071 -2.3249 -0.0142 9.93923e-017 5.96354e-016 -0 0.6113 -8.7231 -2.0637 9.93923e-017 -1.98785e-016 -1.59028e-015 -0.1927 -3.8059 -0.2383 -0.0160551 0.00299681 0.000857156 -0.1091 -2.1688 -0.1362 -2.48481e-016 0 3.18055e-015 -0.6151 -8.0947 -3.5641 9.93923e-017 -1.98785e-016 -1.59028e-015 -0.4882 -2.341 -0.6462 -0.0125865 0.0031206 0.00282719 -0.3575 -1.7167 -0.4742 0 1.98785e-016 -0 -1.42 -1.8761 1.4223 9.93923e-017 -1.98785e-016 -1.59028e-015 -1.1471 -3.4929 2.6334 9.93923e-017 -5.96354e-016 -1.59028e-015 -0.823 -2.3 1.6571 -9.93923e-017 -5.96354e-016 -1.59028e-015 -2.2603 21.606 7.4023 -0.865644 0.16582 7.03859 -13.5187 -1.1334 -5.0155 -88.0329 10.2057 -10.5567 0.0994 -28.0499 -0.2431 0.0015593 -0.00248883 -0.000788628 -0.0679 -23.3996 -0.1402 7.87605e-005 4.10553e-005 1.24965e-005 -0.7932 -9.0691 2.5189 -3.97569e-016 -7.95139e-016 3.18055e-015 0.8272 -3.3923 0.5977 -1.98785e-016 -3.97569e-016 3.18055e-015 0.565 -2.3158 0.4082 -1.98785e-016 0 3.18055e-015 -0.916 -9.2044 0.2193 -3.97569e-016 -7.95139e-016 3.18055e-015 -0.0117 -4.1944 -0.0248 0.0129473 0.00231697 -8.70038e-005 -0.0071 -2.3249 -0.0142 9.93923e-017 -7.95139e-016 1.59028e-015 -0.6113 -8.7231 -2.0637 -3.97569e-016 -7.95139e-016 3.18055e-015 0.1927 -3.8059 -0.2383 0.0163314 0.00303369 -0.000872333 0.1091 -2.1688 -0.1362 3.97569e-016 7.95139e-016 -3.18055e-015 0.6151 -8.0947 -3.564 -3.97569e-016 -7.95139e-016 3.18055e-015 0.4882 -2.341 -0.6462 0.0145763 0.00367772 -0.00326275 0.3574 -1.7166 -0.4742 9.93923e-017 -3.97569e-016 -0 1.4199 -1.8761 1.4221 -3.97569e-016 -7.95139e-016 3.18055e-015 1.1472 -3.4929 2.6336 -1.98785e-016 -3.97569e-016 3.18055e-015 0.8229 -2.3 1.6571 -1.98785e-016 0 3.18055e-015 -9.412 3.9771 -0.7758 3.42485 1.36937 -0.0640303 -0.7531 -40.938 0 0.000136572 0.69354 0.00145564 1.77636e-015 -40.1986 -1.11022e-016 -3.42573 -2.06297 -0.0607933 8.88178e-016 -4.4182 9.239 -3.19502e-024 0 -1.48106e-024 9.4119 3.9773 -0.7758 -3.42498 1.36123 0.0639712 0.7532 -40.9383 2.22045e-016 -6.769e-005 0.712612 -0.0012277 8.88179e-016 -40.1986 0 3.42582 -2.07388 0.0612819 -8.88178e-016 -4.4182 9.239 2.55305e-023 0 -2.31416e-026 
-0.750091 63.6083 0.977548 8.6731e-008 2.72662 -5.55168e-009 -1.11022e-016 8.7983 -4.7612 -0.442833 0.958215 3.24859 1.11022e-016 8.0291 0.4195 -0.93946 1.88976 6.5058 1.11022e-016 9.9351 -2.2114 -0.939463 1.88976 6.50583 2.22045e-016 22.3885 -0.4656 14.9082 -0.0891081 -0.106718 -0.0001 12.643 3.4389 0.00632819 -0.0724699 -0.0516327 2.2603 21.606 7.4023 28.5907 8.96762 -91.3222 13.5163 -1.1332 -5.0146 51.2013 -2.00806 33.5332 -0.0995 -28.05 -0.2431 3.78523 -55.8423 74.3398 0.0679 -23.3996 -0.1402 -20.8608 15.6213 -32.3833 0.7932 -9.069 2.5189 4.35922e-006 1.15478e-006 -3.1674e-006 -0.8272 -3.3923 0.5977 -9.15143e-007 4.98911e-007 1.4401e-006 -0.5649 -2.3158 0.4082 4.71572e-006 1.05416e-005 2.25198e-006 0.9159 -9.2044 0.2193 4.35922e-006 1.15478e-006 -3.1674e-006 0.0117 -4.1944 -0.0248 -0.0127861 0.00232858 9.23318e-005 0.0071 -2.3249 -0.0142 -6.53108e-006 5.25362e-006 -2.29361e-006 0.6113 -8.7231 -2.0637 4.35922e-006 1.15478e-006 -3.1674e-006 -0.1927 -3.8059 -0.2383 -0.0160757 0.0029939 0.000861365 -0.1091 -2.1688 -0.1362 -4.22015e-006 5.88044e-007 1.45234e-006 -0.6151 -8.0947 -3.5641 4.35922e-006 1.15478e-006 -3.1674e-006 -0.4882 -2.341 -0.6462 -0.0125656 0.00310578 0.00281286 -0.3575 -1.7167 -0.4742 -3.44353e-006 -5.96432e-008 1.72698e-006 -1.42 -1.8761 1.4223 4.35922e-006 1.15478e-006 -3.1674e-006 -1.1471 -3.4929 2.6334 -9.15143e-007 4.98911e-007 1.4401e-006 -0.823 -2.3 1.6571 4.71572e-006 1.05416e-005 2.25198e-006 -2.2603 21.606 7.4023 -1.93382 -19.4312 14.2804 -13.5187 -1.1334 -5.0155 -6.70179 -17.072 -9.72761 0.0994 -28.0499 -0.2431 -7.15941 -44.9499 -1.7703 -0.0679 -23.3996 -0.1402 66.5874 28.1716 2.30793 -0.7932 -9.0691 2.5189 -8.50948e-006 4.80228e-005 -1.1696e-005 0.8272 -3.3923 0.5977 1.07498e-005 -2.19076e-005 -6.70697e-006 0.565 -2.3158 0.4082 -3.60791e-006 1.39929e-006 1.23666e-006 -0.916 -9.2044 0.2193 -8.50948e-006 4.80228e-005 -1.1696e-005 -0.0117 -4.1944 -0.0248 0.0129376 0.00227392 -8.92008e-005 -0.0071 -2.3249 -0.0142 3.62591e-006 5.44474e-009 -2.9877e-006 -0.6113 -8.7231 -2.0637 -8.50948e-006 4.80228e-005 -1.1696e-005 0.1927 -3.8059 -0.2383 0.0163252 0.00299107 -0.000870152 0.1091 -2.1688 -0.1362 5.06901e-015 -4.74598e-015 1.59028e-015 0.6151 -8.0947 -3.564 -8.50948e-006 4.80228e-005 -1.1696e-005 0.4882 -2.341 -0.6462 0.0145549 0.00364042 -0.00326063 0.3574 -1.7166 -0.4742 -4.96962e-016 -6.93262e-015 -3.18055e-015 1.4199 -1.8761 1.4221 -8.50948e-006 4.80228e-005 -1.1696e-005 1.1472 -3.4929 2.6336 1.07498e-005 -2.19076e-005 -6.70697e-006 0.8229 -2.3 1.6571 -3.60791e-006 1.39929e-006 1.23666e-006 -9.412 3.9771 -0.7758 -18.5427 -19.071 -12.2313 -0.7531 -40.938 0 2.43612 23.3729 -0.577881 0 -40.1986 1.77636e-015 20.7088 -4.20577 -7.69946 0 -4.4182 9.239 -8.45047e-007 -8.37496e-008 -8.99318e-009 9.4119 3.9773 -0.7758 8.71029 -26.6409 15.1616 0.7532 -40.9383 3.55271e-015 1.24506 42.9479 -1.01976 3.55271e-015 -40.1986 -1.77636e-015 -11.8513 -17.7421 3.76305 1.77636e-015 -4.4182 9.239 1.6264e-006 -1.5287e-007 -1.58054e-006 
-0.706667 63.4134 1.85855 -2.7607e-007 0.894728 -1.0039e-007 -1.11022e-016 8.7983 -4.7612 -0.340081 1.25536 3.06001 1.11022e-016 8.0291 0.4195 -0.746987 2.49074 6.12958 1.11022e-016 9.9351 -2.2114 -0.74699 2.49075 6.12961 1.11022e-016 22.3885 -0.4656 14.1617 -0.407868 -0.487511 -0.0001 12.643 3.4389 0.028258 -0.331416 -0.236084 2.2603 21.606 7.4023 26.2496 11.1119 -87.3036 13.5163 -1.1332 -5.0146 53.2169 -0.837864 32.2536 -0.0995 -28.05 -0.2431 4.13552 -52.7188 70.7046 0.0679 -23.3996 -0.1402 -19.6581 14.7239 -30.4883 0.7932 -9.06901 2.5189 -3.18055e-015 -9.54166e-015 -0 -0.8272 -3.3923 0.5977 3.18055e-015 -7.95139e-015 -3.18055e-015 -0.5649 -2.3158 0.4082 -3.90762e-006 -4.96389e-007 -2.81512e-006 0.9159 -9.20441 0.2193 -3.18055e-015 -9.54166e-015 -0 0.0117 -4.1944 -0.0248 -0.0128174 0.00232439 8.42588e-005 0.0071 -2.3249 -0.0142 -1.8607e-006 4.40496e-006 -1.22624e-006 0.6113 -8.7231 -2.0637 -3.18055e-015 -9.54166e-015 -0 -0.1927 -3.8059 -0.2383 -0.0160205 0.00298144 0.000853726 -0.1091 -2.1688 -0.1362 1.42388e-007 4.06085e-006 -3.98928e-006 -0.6151 -8.0947 -3.5641 -3.18055e-015 -9.54166e-015 -0 -0.4882 -2.341 -0.6462 -0.0125485 0.00311725 0.00281825 -0.3575 -1.7167 -0.4742 -1.04523e-006 3.13242e-006 -2.97044e-006 -1.42 -1.8761 1.4223 -3.18055e-015 -9.54166e-015 -0 -1.1471 -3.4929 2.6334 3.18055e-015 -7.95139e-015 -3.18055e-015 -0.823 -2.3 1.6571 -3.90762e-006 -4.96389e-007 -2.81512e-006 -2.2603 21.606 7.4023 -1.44144 -18.8459 14.7732 -13.5187 -1.1334 -5.0155 -12.3619 -15.1574 -10.4282 0.0994 -28.0499 -0.2431 -7.45439 -42.0736 -2.34026 -0.0679 -23.3996 -0.1402 63.096 26.7219 1.93068 -0.7932 -9.0691 2.5189 -1.28797e-006 -1.00835e-006 1.10354e-006 0.8272 -3.3923 0.5977 1.78755e-007 -5.51552e-007 -2.31419e-006 0.565 -2.3158 0.4082 5.25226e-006 -1.7114e-005 -5.0285e-007 -0.916 -9.2044 0.2193 -1.28797e-006 -1.00835e-006 1.10354e-006 -0.0117 -4.1944 -0.0248 0.0129296 0.00230648 -8.53519e-005 -0.0071 -2.3249 -0.0142 -1.46177e-007 -8.45399e-006 -3.27804e-006 -0.6113 -8.7231 -2.0637 -1.28797e-006 -1.00835e-006 1.10354e-006 0.1927 -3.8059 -0.2383 0.0163858 0.00302832 -0.000883793 0.1091 -2.1688 -0.1362 -5.43313e-006 1.09616e-005 2.81686e-006 0.6151 -8.0947 -3.564 -1.28797e-006 -1.00835e-006 1.10354e-006 0.4882 -2.341 -0.6462 0.0145007 0.0036419 -0.00324094 0.3574 -1.7166 -0.4742 7.95139e-016 1.01652e-006 -3.18055e-015 1.4199 -1.8761 1.4221 -1.28797e-006 -1.00835e-006 1.10354e-006 1.1472 -3.4929 2.6336 1.78755e-007 -5.51552e-007 -2.31419e-006 0.8229 -2.3 1.6571 5.25226e-006 -1.7114e-005 -5.0285e-007 -9.412 3.9771 -0.7758 -17.1615 -16.9144 -11.4913 -0.7531 -40.938 7.10543e-015 1.92899 24.1693 -0.402979 -3.55271e-015 -40.1986 -1.77636e-015 19.5678 -5.31184 -6.30407 0 -4.4182 9.239 1.39149e-015 -2.07811e-011 -6.36111e-015 9.4119 3.9773 -0.7758 7.62102 -23.6934 14.0508 0.7532 -40.9383 3.55272e-015 1.46291 41.9876 -1.16257 0 -40.1986 3.55271e-015 -11.2941 -17.9907 3.12168 -1.77636e-015 -4.4182 9.239 -4.96962e-016 2.25107e-007 3.18055e-015 
-0.707667 63.0346 2.54951 -2.20286e-007 -0.686921 -5.38374e-007 -1.11022e-016 8.7983 -4.7612 -0.298731 1.58669 3.06003 -1.11022e-016 8.0291 0.4195 -0.682195 3.15513 6.1318 0 9.9351 -2.2114 -0.682197 3.15514 6.13182 1.11022e-016 22.3885 -0.4656 14.2831 -0.715178 -0.853021 -0.0001 12.643 3.4389 0.048563 -0.580161 -0.413115 2.2603 21.606 7.4023 26.2496 11.1118 -87.3037 13.5163 -1.1332 -5.0146 53.2171 -0.838327 32.2536 -0.0995 -28.05 -0.2431 4.13554 -52.7183 70.7045 0.0679 -23.3996 -0.1402 -19.6804 14.7213 -30.4858 0.7932 -9.069 2.5189 -6.36111e-015 -1.59028e-015 3.18055e-015 -0.8272 -3.3923 0.5977 -7.86499e-006 -2.0839e-005 -4.86912e-007 -0.5649 -2.3158 0.4082 1.27222e-014 -7.95139e-015 -0 0.9159 -9.2044 0.2193 -6.36111e-015 -1.59028e-015 3.18055e-015 0.0117 -4.1944 -0.0248 -0.0128575 0.00230713 8.43156e-005 0.0071 -2.3249 -0.0142 -3.18055e-015 1.74931e-014 -0 0.6113 -8.7231 -2.0637 -6.36111e-015 -1.59028e-015 3.18055e-015 -0.1927 -3.8059 -0.2383 -0.0159912 0.00297755 0.000839353 -0.1091 -2.1688 -0.1362 6.36111e-015 -6.36111e-015 3.18055e-015 -0.6151 -8.0947 -3.5641 -6.36111e-015 -1.59028e-015 3.18055e-015 -0.4882 -2.341 -0.6462 -0.012654 0.00311573 0.00283846 -0.3575 -1.7167 -0.4742 3.18055e-015 1.59028e-015 3.18055e-015 -1.42 -1.8761 1.4223 -6.36111e-015 -1.59028e-015 3.18055e-015 -1.1471 -3.4929 2.6334 -7.86499e-006 -2.0839e-005 -4.86912e-007 -0.823 -2.3 1.6571 1.27222e-014 -7.95139e-015 -0 -2.2603 21.606 7.4023 -0.886037 -19.3579 15.6944 -13.5187 -1.1334 -5.0155 -13.2731 -15.0514 -10.7855 0.0994 -28.0499 -0.2431 -7.91605 -41.828 -2.67162 -0.0679 -23.3996 -0.1402 63.7157 26.7534 1.33847 -0.7932 -9.0691 2.5189 7.95139e-016 -4.57205e-015 3.18055e-015 0.8272 -3.3923 0.5977 7.95139e-016 -5.76476e-015 -0 0.565 -2.3158 0.4082 1.10797e-006 -2.13327e-006 1.21208e-006 -0.916 -9.2044 0.2193 7.95139e-016 -4.57205e-015 3.18055e-015 -0.0117 -4.1944 -0.0248 0.0129678 0.00236382 -9.13089e-005 -0.0071 -2.3249 -0.0142 1.59028e-015 -5.36719e-015 -3.18055e-015 -0.6113 -8.7231 -2.0637 7.95139e-016 -4.57205e-015 3.18055e-015 0.1927 -3.8059 -0.2383 0.0162644 0.0030024 -0.000857675 0.1091 -2.1688 -0.1362 1.10804e-006 3.91992e-006 1.21213e-006 0.6151 -8.0947 -3.564 7.95139e-016 -4.57205e-015 3.18055e-015 0.4882 -2.341 -0.6462 0.0146371 0.0036879 -0.00326351 0.3574 -1.7166 -0.4742 7.95139e-016 7.95139e-016 3.18055e-015 1.4199 -1.8761 1.4221 7.95139e-016 -4.57205e-015 3.18055e-015 1.1472 -3.4929 2.6336 7.95139e-016 -5.76476e-015 -0 0.8229 -2.3 1.6571 1.10797e-006 -2.13327e-006 1.21208e-006 -9.412 3.9771 -0.7758 -17.3231 -15.965 -11.5341 -0.7531 -40.938 0 1.61661 26.1571 -0.272081 -3.55271e-015 -40.1986 0 19.8316 -6.45351 -5.38806 7.10543e-015 -4.4182 9.239 -7.38943e-007 1.95747e-007 3.22179e-006 9.4119 3.9773 -0.7758 7.65759 -22.3297 14.011 0.7532 -40.9383 7.10543e-015 1.82641 43.2898 -1.40987 0 -40.1986 0 -11.5801 -19.0274 2.73671 -3.55271e-015 -4.4182 9.239 8.46061e-007 -6.62831e-008 1.04589e-008 
